<svg xmlns="http://www.w3.org/2000/svg" xmlns:xlink="http://www.w3.org/1999/xlink" width="500" zoomAndPan="magnify" viewBox="0 0 375 374.999991" height="500" preserveAspectRatio="xMidYMid meet" version="1.0"><defs><g/><clipPath id="c8b2cd6aac"><path d="M 112.5 132.78125 L 262.5 132.78125 L 262.5 192.78125 L 112.5 192.78125 Z M 112.5 132.78125 " clip-rule="nonzero"/></clipPath></defs><g clip-path="url(#c8b2cd6aac)"><path fill="#ffffff" d="M 121.113281 174 L 117.636719 174.074219 C 117.636719 174.074219 117.90625 175.617188 118.492188 176.246094 C 119.078125 176.863281 121.113281 176.9375 121.113281 176.9375 Z M 209.355469 182.183594 C 210.746094 182.183594 211.886719 183.9375 211.886719 186.09375 C 211.886719 188.253906 210.746094 190.007812 209.355469 190.007812 C 207.960938 190.007812 206.820312 188.253906 206.820312 186.09375 C 206.820312 183.9375 207.945312 182.183594 209.355469 182.183594 Z M 242.882812 184.476562 C 241.789062 184.476562 240.921875 185.839844 240.921875 187.519531 C 240.921875 189.199219 241.804688 190.5625 242.882812 190.5625 C 243.976562 190.5625 244.847656 189.199219 244.847656 187.519531 C 244.847656 185.839844 243.960938 184.476562 242.882812 184.476562 Z M 200.675781 181.507812 C 199.191406 181.507812 197.976562 183.367188 197.976562 185.675781 C 197.976562 187.96875 199.191406 189.84375 200.675781 189.84375 C 202.160156 189.84375 203.375 187.984375 203.375 185.675781 C 203.359375 183.382812 202.160156 181.507812 200.675781 181.507812 Z M 151.273438 178.796875 C 149.414062 178.796875 147.914062 181.117188 147.914062 183.980469 C 147.914062 186.84375 149.414062 189.167969 151.273438 189.167969 C 153.128906 189.167969 154.628906 186.84375 154.628906 183.980469 C 154.628906 181.117188 153.128906 178.796875 151.273438 178.796875 Z M 249.222656 184.972656 C 248.203125 184.972656 247.378906 186.246094 247.378906 187.835938 C 247.378906 189.40625 248.203125 190.695312 249.222656 190.695312 C 250.242188 190.695312 251.066406 189.421875 251.066406 187.835938 C 251.066406 186.246094 250.242188 184.972656 249.222656 184.972656 Z M 137.828125 178.179688 L 142.847656 178.257812 C 142.847656 178.257812 144.289062 174.929688 145.757812 173.113281 C 147.226562 171.300781 148.964844 170.492188 148.964844 170.492188 C 148.964844 170.492188 144.136719 170.492188 141.378906 171.570312 C 138.636719 172.648438 137.707031 173.550781 137.707031 173.550781 L 143.042969 173.820312 C 143.042969 173.820312 143.089844 175.707031 141.992188 176.636719 C 140.914062 177.566406 137.828125 178.179688 137.828125 178.179688 Z M 175.6875 141.1875 C 182.6875 140.453125 189.417969 141.519531 189.417969 141.519531 C 189.417969 141.519531 185.175781 139.449219 175.6875 138.910156 Z M 189.417969 144.441406 L 186.496094 143.617188 L 189.417969 145.820312 Z M 189.417969 148.742188 L 182.042969 146.839844 L 189.417969 150.0625 Z M 189.417969 152.460938 L 176.421875 149.386719 L 189.417969 154.980469 Z M 189.417969 162.21875 L 184.546875 161.347656 L 189.417969 164.136719 Z M 189.417969 171.332031 L 189.417969 169.457031 L 179.496094 168.109375 Z M 161.238281 180.398438 C 161.238281 180.398438 161.390625 181.582031 161.390625 182.347656 C 161.390625 183.128906 161.300781 183.996094 161.300781 183.996094 L 185.507812 184.460938 L 162.5 182.871094 C 162.5 182.871094 162.574219 181.988281 162.484375 181.300781 C 162.410156 180.609375 162.363281 180.519531 162.363281 180.519531 Z M 167.625 152.820312 L 169.601562 152.820312 C 169.992188 152.820312 170.292969 153.136719 170.292969 153.507812 L 170.292969 158.574219 C 170.292969 158.964844 169.976562 159.265625 169.601562 159.265625 L 169.289062 159.265625 C 169.242188 159.65625 169.152344 160.074219 168.972656 160.417969 C 168.554688 161.273438 165.046875 161.8125 164.058594 161.679688 C 163.066406 161.542969 163.457031 160.792969 163.457031 160.792969 C 163.457031 160.792969 165.660156 160.808594 167.128906 160.390625 C 167.925781 160.164062 168.328125 159.671875 168.539062 159.265625 L 167.609375 159.265625 C 167.21875 159.265625 166.921875 158.949219 166.921875 158.574219 L 166.921875 153.507812 C 166.933594 153.136719 167.25 152.820312 167.625 152.820312 Z M 189.582031 190.726562 C 190.871094 190.695312 192.160156 190.667969 193.4375 190.636719 C 192.761719 189.632812 192.28125 188.296875 192.132812 186.800781 L 190.84375 186.800781 C 190.722656 188.3125 190.273438 189.691406 189.582031 190.726562 Z M 153.59375 191.328125 C 159.515625 191.222656 165.511719 191.148438 171.476562 191.042969 C 170.609375 189.976562 170.007812 188.433594 169.84375 186.664062 L 156.039062 186.605469 C 155.605469 188.597656 154.734375 190.277344 153.59375 191.328125 Z M 129.492188 191.925781 C 134.035156 191.761719 138.710938 191.625 143.476562 191.519531 C 142.21875 190.472656 141.246094 188.6875 140.808594 186.546875 L 132.3125 186.515625 C 131.890625 188.988281 130.84375 190.980469 129.492188 191.925781 Z M 250.03125 192.210938 C 254.171875 192.375 258.292969 192.570312 262.445312 192.78125 C 212.484375 192.78125 162.515625 192.78125 112.554688 192.78125 C 115.703125 192.554688 118.988281 192.375 122.375 192.210938 C 120.785156 191.429688 119.527344 189.257812 119.046875 186.46875 L 118.714844 186.46875 C 116.828125 186.515625 115.734375 186.003906 115.734375 185.660156 C 115.734375 185.316406 115.507812 180.550781 115.6875 177.148438 C 115.882812 173.746094 116.035156 174 116.5 173.625 C 116.964844 173.265625 121.96875 171.332031 121.96875 171.332031 C 121.96875 171.332031 122.433594 164.183594 122.957031 164.226562 L 124.695312 164.257812 L 136.808594 164.4375 L 124.695312 165.546875 L 124.683594 166.175781 L 136.734375 166.355469 L 124.652344 167.464844 L 124.636719 168.09375 L 136.613281 168.273438 L 124.605469 169.382812 L 124.59375 170.027344 L 136.492188 170.207031 L 124.546875 171.300781 L 124.53125 171.945312 L 136.375 172.109375 L 124.503906 173.203125 L 124.488281 173.863281 L 136.253906 174.03125 L 124.441406 175.109375 L 124.425781 175.769531 L 136.132812 175.933594 L 124.398438 177.011719 L 124.382812 177.6875 L 136.011719 177.851562 L 124.335938 178.914062 L 124.324219 179.558594 L 142.445312 179.90625 L 142.398438 184.042969 L 118.550781 185.359375 L 144.691406 185.4375 C 144.691406 185.4375 144.542969 178.390625 146.085938 175.453125 C 147.644531 172.5 152.214844 170.328125 155.589844 173.683594 C 158.976562 177.042969 158.527344 185.359375 158.527344 185.359375 L 189.464844 185.75 L 190.707031 180.910156 L 161.238281 178.976562 C 161.238281 178.976562 161.089844 177.777344 160.492188 175.976562 C 159.890625 174.179688 158.09375 172.648438 158.09375 172.648438 C 158.09375 172.648438 159.230469 172.832031 160.160156 173.730469 C 161.089844 174.644531 162.078125 176.335938 162.078125 176.335938 L 169.347656 176.789062 C 170.472656 176.335938 172.046875 175.511719 172.601562 174.253906 C 172.871094 173.640625 173.019531 173.011719 173.097656 172.441406 L 172.332031 172.441406 C 171.988281 172.441406 171.71875 172.15625 171.71875 171.824219 L 171.71875 154.199219 C 171.71875 153.855469 172 153.585938 172.332031 153.585938 L 173.082031 153.585938 C 173.035156 151.5 172.902344 146 172.78125 141.636719 C 166.007812 143.121094 162.695312 147.902344 162.695312 147.902344 L 147.226562 148.59375 C 152.097656 140.257812 163.90625 138.65625 172.707031 138.804688 C 172.675781 137.964844 172.660156 137.261719 172.632812 136.722656 C 172.480469 132.78125 174.640625 132.898438 175.34375 132.855469 C 176.035156 132.808594 177.128906 133.933594 176.933594 134.59375 C 176.738281 135.253906 174.609375 134.910156 174.488281 137.679688 C 174.398438 139.976562 174.21875 150.121094 174.160156 153.570312 L 175.417969 153.570312 C 175.765625 153.570312 176.035156 153.855469 176.035156 154.183594 L 176.035156 171.824219 C 176.035156 172.171875 175.75 172.441406 175.417969 172.441406 L 174.339844 172.441406 C 174.175781 173.550781 173.949219 174.734375 173.636719 175.226562 C 173.289062 175.769531 172.511719 176.425781 171.820312 176.9375 L 193.136719 178.269531 L 193.136719 176.683594 L 191.816406 175.796875 L 191.816406 143.316406 L 197.390625 142.835938 L 254.828125 160.539062 L 197.390625 145.25 L 197.390625 146.703125 L 230.789062 156.191406 L 197.378906 148.894531 L 197.378906 150.8125 L 223.894531 157.675781 L 197.378906 152.925781 L 197.378906 154.347656 L 247.363281 166.191406 L 197.378906 155.9375 L 197.378906 163.65625 L 247.304688 172.589844 L 197.378906 165.441406 L 197.378906 170.535156 L 251.9375 177.972656 L 197.378906 172.621094 L 197.378906 175.167969 L 256.386719 181.523438 L 250.496094 183.785156 C 251.382812 184.613281 251.964844 186.109375 251.964844 187.804688 C 251.980469 189.828125 251.171875 191.535156 250.03125 192.210938 Z M 244.039062 191.984375 L 244.980469 192.015625 C 244.816406 191.882812 244.652344 191.730469 244.503906 191.550781 C 244.351562 191.714844 244.203125 191.867188 244.039062 191.984375 Z M 235.058594 191.699219 C 236.078125 191.730469 237.113281 191.761719 238.132812 191.792969 C 237.335938 191.027344 236.753906 189.753906 236.617188 188.253906 L 236.363281 188.253906 C 236.289062 189.675781 235.792969 190.921875 235.058594 191.699219 Z M 211.601562 191.070312 C 215.109375 191.160156 218.632812 191.25 222.140625 191.339844 C 221.433594 190.425781 220.984375 189.046875 220.984375 187.519531 C 220.984375 185.40625 221.824219 183.605469 223.023438 182.871094 L 212.410156 182.511719 C 212.859375 183.53125 213.117188 184.777344 213.117188 186.09375 C 213.128906 188.105469 212.53125 189.886719 211.601562 191.070312 Z M 163.832031 149.449219 C 156.863281 149.808594 143.359375 149.824219 142.9375 151.066406 L 141.441406 155.277344 L 153.894531 154.964844 L 145.890625 156.476562 L 154.703125 156.820312 L 143.988281 158.140625 L 152.964844 159.027344 L 142.714844 160.613281 C 142.714844 160.613281 141.722656 160.613281 140.179688 160.660156 C 139.957031 160.613281 139.746094 160.570312 139.550781 160.507812 C 138.832031 160.300781 138.457031 159.863281 138.277344 159.492188 L 139.117188 159.492188 C 139.460938 159.492188 139.746094 159.207031 139.746094 158.859375 L 139.746094 154.289062 C 139.746094 153.945312 139.460938 153.660156 139.117188 153.660156 L 137.332031 153.660156 C 136.988281 153.660156 136.703125 153.945312 136.703125 154.289062 L 136.703125 158.859375 C 136.703125 159.207031 136.988281 159.492188 137.332031 159.492188 L 137.617188 159.492188 C 137.664062 159.835938 137.738281 160.226562 137.902344 160.539062 C 137.933594 160.597656 137.992188 160.675781 138.050781 160.734375 C 136.074219 160.824219 133.675781 160.960938 131.308594 161.183594 C 125.703125 161.722656 124.773438 162.773438 124.773438 162.773438 C 124.773438 162.773438 136.988281 161.378906 142.832031 161.304688 C 148.679688 161.230469 161.238281 161.527344 161.238281 161.527344 L 163.023438 153.328125 L 142.683594 154.289062 C 142.683594 154.289062 143.191406 152.582031 143.957031 151.816406 C 144.738281 151.035156 163.832031 149.449219 163.832031 149.449219 Z M 163.832031 149.449219 " fill-opacity="1" fill-rule="evenodd"/></g><g fill="#ffffff" fill-opacity="1"><g transform="translate(148.21137, 220.402411)"><g><path d="M 11.640625 -7.75 L 14.984375 -7.75 L 14.984375 -1.8125 C 14.160156 -1.226562 13.164062 -0.75 12 -0.375 C 10.832031 -0.0078125 9.71875 0.171875 8.65625 0.171875 C 6.332031 0.171875 4.394531 -0.566406 2.84375 -2.046875 C 1.289062 -3.535156 0.515625 -5.390625 0.515625 -7.609375 C 0.515625 -9.816406 1.3125 -11.660156 2.90625 -13.140625 C 4.507812 -14.617188 6.515625 -15.359375 8.921875 -15.359375 C 10.046875 -15.359375 11.164062 -15.15625 12.28125 -14.75 C 13.40625 -14.34375 14.359375 -13.789062 15.140625 -13.09375 L 12.96875 -10.46875 C 12.414062 -10.96875 11.773438 -11.363281 11.046875 -11.65625 C 10.328125 -11.957031 9.609375 -12.109375 8.890625 -12.109375 C 7.648438 -12.109375 6.601562 -11.675781 5.75 -10.8125 C 4.90625 -9.957031 4.484375 -8.890625 4.484375 -7.609375 C 4.484375 -6.316406 4.910156 -5.234375 5.765625 -4.359375 C 6.617188 -3.492188 7.675781 -3.0625 8.9375 -3.0625 C 9.75 -3.0625 10.648438 -3.3125 11.640625 -3.8125 Z M 11.640625 -7.75 "/></g></g></g><g fill="#ffffff" fill-opacity="1"><g transform="translate(165.024238, 220.402411)"><g><path d="M 6.9375 -11.859375 C 8.851562 -11.859375 10.394531 -11.304688 11.5625 -10.203125 C 12.738281 -9.109375 13.328125 -7.660156 13.328125 -5.859375 C 13.328125 -4.066406 12.738281 -2.617188 11.5625 -1.515625 C 10.394531 -0.421875 8.851562 0.125 6.9375 0.125 C 5.007812 0.125 3.457031 -0.421875 2.28125 -1.515625 C 1.101562 -2.617188 0.515625 -4.066406 0.515625 -5.859375 C 0.515625 -7.660156 1.101562 -9.109375 2.28125 -10.203125 C 3.457031 -11.304688 5.007812 -11.859375 6.9375 -11.859375 Z M 6.9375 -8.875 C 6.15625 -8.875 5.519531 -8.585938 5.03125 -8.015625 C 4.550781 -7.453125 4.3125 -6.722656 4.3125 -5.828125 C 4.3125 -4.910156 4.550781 -4.171875 5.03125 -3.609375 C 5.519531 -3.054688 6.15625 -2.78125 6.9375 -2.78125 C 7.707031 -2.78125 8.332031 -3.054688 8.8125 -3.609375 C 9.300781 -4.171875 9.546875 -4.910156 9.546875 -5.828125 C 9.546875 -6.722656 9.300781 -7.453125 8.8125 -8.015625 C 8.332031 -8.585938 7.707031 -8.875 6.9375 -8.875 Z M 6.9375 -8.875 "/></g></g></g><g fill="#ffffff" fill-opacity="1"><g transform="translate(179.531604, 220.402411)"><g><path d="M 6.65625 -15.40625 C 8.175781 -15.40625 9.421875 -15.035156 10.390625 -14.296875 C 11.367188 -13.566406 11.859375 -12.609375 11.859375 -11.421875 C 11.859375 -9.992188 10.898438 -8.300781 8.984375 -6.34375 L 5.890625 -3.0625 L 12.3125 -3.0625 L 12.3125 0 L 0.90625 0 L 0.90625 -2.5 L 6.34375 -8.265625 C 7.320312 -9.273438 7.8125 -10.144531 7.8125 -10.875 C 7.8125 -11.3125 7.65625 -11.648438 7.34375 -11.890625 C 7.039062 -12.140625 6.625 -12.265625 6.09375 -12.265625 C 4.832031 -12.265625 3.445312 -11.617188 1.9375 -10.328125 L 0.484375 -13.109375 C 2.515625 -14.640625 4.570312 -15.40625 6.65625 -15.40625 Z M 6.65625 -15.40625 "/></g></g></g><g fill="#ffffff" fill-opacity="1"><g transform="translate(193.234221, 220.402411)"><g><path d="M 18.25 0 L 14.828125 0 L 14.8125 -9.890625 L 11.15625 -1.515625 L 8.640625 -1.515625 L 4.984375 -9.890625 L 4.984375 0 L 1.515625 0 L 1.515625 -15.25 L 5.765625 -15.25 L 9.890625 -6.171875 L 14.03125 -15.25 L 18.25 -15.25 Z M 18.25 0 "/></g></g></g><g fill="#ffffff" fill-opacity="1"><g transform="translate(213.679353, 220.402411)"><g><path d="M 6.640625 -11.859375 C 8.660156 -11.859375 10.179688 -11.234375 11.203125 -9.984375 C 12.234375 -8.734375 12.679688 -7.019531 12.546875 -4.84375 L 4.3125 -4.84375 C 4.5 -4.15625 4.832031 -3.617188 5.3125 -3.234375 C 5.789062 -2.859375 6.375 -2.671875 7.0625 -2.671875 C 8.132812 -2.671875 9.070312 -3.070312 9.875 -3.875 L 11.859375 -1.9375 C 10.597656 -0.5625 8.894531 0.125 6.75 0.125 C 4.84375 0.125 3.328125 -0.414062 2.203125 -1.5 C 1.078125 -2.582031 0.515625 -4.023438 0.515625 -5.828125 C 0.515625 -7.640625 1.078125 -9.097656 2.203125 -10.203125 C 3.328125 -11.304688 4.804688 -11.859375 6.640625 -11.859375 Z M 4.234375 -6.875 L 8.9375 -6.875 C 8.9375 -7.582031 8.726562 -8.15625 8.3125 -8.59375 C 7.90625 -9.03125 7.359375 -9.25 6.671875 -9.25 C 6.035156 -9.25 5.5 -9.03125 5.0625 -8.59375 C 4.632812 -8.164062 4.359375 -7.59375 4.234375 -6.875 Z M 4.234375 -6.875 "/></g></g></g><g fill="#ffffff" fill-opacity="1"><g transform="translate(39.536934, 239.838114)"><g><path d="M 8.390625 -8.421875 L 2.96875 -8.421875 L 2.96875 -5.734375 L 7.828125 -5.734375 L 7.828125 -4.234375 L 2.96875 -4.234375 L 2.96875 -1.5 L 8.5625 -1.5 L 8.5625 0 L 1.296875 0 L 1.296875 -9.921875 L 8.390625 -9.921875 Z M 8.390625 -8.421875 "/></g></g></g><g fill="#ffffff" fill-opacity="1"><g transform="translate(51.278553, 239.838114)"><g><path d="M 5.703125 -9.96875 C 6.398438 -9.96875 7.082031 -9.832031 7.75 -9.5625 C 8.414062 -9.289062 8.988281 -8.914062 9.46875 -8.4375 L 8.484375 -7.21875 C 8.128906 -7.601562 7.703125 -7.90625 7.203125 -8.125 C 6.710938 -8.351562 6.21875 -8.46875 5.71875 -8.46875 C 4.726562 -8.46875 3.890625 -8.128906 3.203125 -7.453125 C 2.523438 -6.785156 2.1875 -5.960938 2.1875 -4.984375 C 2.1875 -4.003906 2.523438 -3.175781 3.203125 -2.5 C 3.890625 -1.820312 4.726562 -1.484375 5.71875 -1.484375 C 6.75 -1.484375 7.671875 -1.878906 8.484375 -2.671875 L 9.484375 -1.5625 C 8.972656 -1.0625 8.375 -0.660156 7.6875 -0.359375 C 7.007812 -0.0664062 6.328125 0.078125 5.640625 0.078125 C 4.179688 0.078125 2.957031 -0.40625 1.96875 -1.375 C 0.976562 -2.34375 0.484375 -3.539062 0.484375 -4.96875 C 0.484375 -6.375 0.984375 -7.554688 1.984375 -8.515625 C 2.992188 -9.484375 4.234375 -9.96875 5.703125 -9.96875 Z M 5.703125 -9.96875 "/></g></g></g><g fill="#ffffff" fill-opacity="1"><g transform="translate(63.600773, 239.838114)"><g><path d="M 2 -8.515625 C 3.007812 -9.484375 4.253906 -9.96875 5.734375 -9.96875 C 7.222656 -9.96875 8.472656 -9.484375 9.484375 -8.515625 C 10.492188 -7.554688 11 -6.367188 11 -4.953125 C 11 -3.535156 10.492188 -2.34375 9.484375 -1.375 C 8.472656 -0.40625 7.222656 0.078125 5.734375 0.078125 C 4.253906 0.078125 3.007812 -0.40625 2 -1.375 C 0.988281 -2.34375 0.484375 -3.535156 0.484375 -4.953125 C 0.484375 -6.367188 0.988281 -7.554688 2 -8.515625 Z M 5.75 -8.453125 C 4.769531 -8.453125 3.929688 -8.113281 3.234375 -7.4375 C 2.535156 -6.769531 2.1875 -5.941406 2.1875 -4.953125 C 2.1875 -3.972656 2.535156 -3.140625 3.234375 -2.453125 C 3.941406 -1.773438 4.78125 -1.4375 5.75 -1.4375 C 6.726562 -1.4375 7.5625 -1.773438 8.25 -2.453125 C 8.9375 -3.140625 9.28125 -3.972656 9.28125 -4.953125 C 9.28125 -5.941406 8.9375 -6.769531 8.25 -7.4375 C 7.5625 -8.113281 6.726562 -8.453125 5.75 -8.453125 Z M 5.75 -8.453125 "/></g></g></g><g fill="#ffffff" fill-opacity="1"><g transform="translate(77.523213, 239.838114)"><g/></g></g><g fill="#ffffff" fill-opacity="1"><g transform="translate(83.628671, 239.838114)"><g><path d="M 8.078125 -8.421875 L 4.9375 -8.421875 L 4.9375 0 L 3.265625 0 L 3.265625 -8.421875 L 0.125 -8.421875 L 0.125 -9.921875 L 8.078125 -9.921875 Z M 8.078125 -8.421875 "/></g></g></g><g fill="#ffffff" fill-opacity="1"><g transform="translate(94.279876, 239.838114)"><g><path d="M 7.59375 0 L 5.78125 -3 C 5.6875 -2.988281 5.535156 -2.984375 5.328125 -2.984375 L 2.96875 -2.984375 L 2.96875 0 L 1.296875 0 L 1.296875 -9.921875 L 5.328125 -9.921875 C 6.597656 -9.921875 7.582031 -9.625 8.28125 -9.03125 C 8.976562 -8.445312 9.328125 -7.613281 9.328125 -6.53125 C 9.328125 -5.738281 9.148438 -5.066406 8.796875 -4.515625 C 8.441406 -3.972656 7.929688 -3.570312 7.265625 -3.3125 L 9.5 0 Z M 2.96875 -4.5 L 5.328125 -4.5 C 6.929688 -4.5 7.734375 -5.160156 7.734375 -6.484375 C 7.734375 -7.773438 6.929688 -8.421875 5.328125 -8.421875 L 2.96875 -8.421875 Z M 2.96875 -4.5 "/></g></g></g><g fill="#ffffff" fill-opacity="1"><g transform="translate(106.970287, 239.838114)"><g><path d="M 9.734375 -9.921875 L 9.734375 -4.109375 C 9.734375 -2.816406 9.347656 -1.796875 8.578125 -1.046875 C 7.816406 -0.296875 6.765625 0.078125 5.421875 0.078125 C 4.085938 0.078125 3.035156 -0.296875 2.265625 -1.046875 C 1.492188 -1.796875 1.109375 -2.816406 1.109375 -4.109375 L 1.109375 -9.921875 L 2.78125 -9.921875 L 2.78125 -4.109375 C 2.78125 -3.273438 3.015625 -2.617188 3.484375 -2.140625 C 3.960938 -1.671875 4.613281 -1.4375 5.4375 -1.4375 C 6.25 -1.4375 6.890625 -1.671875 7.359375 -2.140625 C 7.828125 -2.609375 8.0625 -3.265625 8.0625 -4.109375 L 8.0625 -9.921875 Z M 9.734375 -9.921875 "/></g></g></g><g fill="#ffffff" fill-opacity="1"><g transform="translate(120.241311, 239.838114)"><g><path d="M 5.703125 -9.96875 C 6.398438 -9.96875 7.082031 -9.832031 7.75 -9.5625 C 8.414062 -9.289062 8.988281 -8.914062 9.46875 -8.4375 L 8.484375 -7.21875 C 8.128906 -7.601562 7.703125 -7.90625 7.203125 -8.125 C 6.710938 -8.351562 6.21875 -8.46875 5.71875 -8.46875 C 4.726562 -8.46875 3.890625 -8.128906 3.203125 -7.453125 C 2.523438 -6.785156 2.1875 -5.960938 2.1875 -4.984375 C 2.1875 -4.003906 2.523438 -3.175781 3.203125 -2.5 C 3.890625 -1.820312 4.726562 -1.484375 5.71875 -1.484375 C 6.75 -1.484375 7.671875 -1.878906 8.484375 -2.671875 L 9.484375 -1.5625 C 8.972656 -1.0625 8.375 -0.660156 7.6875 -0.359375 C 7.007812 -0.0664062 6.328125 0.078125 5.640625 0.078125 C 4.179688 0.078125 2.957031 -0.40625 1.96875 -1.375 C 0.976562 -2.34375 0.484375 -3.539062 0.484375 -4.96875 C 0.484375 -6.375 0.984375 -7.554688 1.984375 -8.515625 C 2.992188 -9.484375 4.234375 -9.96875 5.703125 -9.96875 Z M 5.703125 -9.96875 "/></g></g></g><g fill="#ffffff" fill-opacity="1"><g transform="translate(132.563532, 239.838114)"><g><path d="M 7.921875 0 L 4.65625 -4.375 L 2.96875 -2.515625 L 2.96875 0 L 1.296875 0 L 1.296875 -9.921875 L 2.96875 -9.921875 L 2.96875 -4.796875 L 7.703125 -9.921875 L 9.671875 -9.921875 L 5.84375 -5.6875 L 9.9375 0 Z M 7.921875 0 "/></g></g></g><g fill="#ffffff" fill-opacity="1"><g transform="translate(145.183133, 239.838114)"><g/></g></g><g fill="#ffffff" fill-opacity="1"><g transform="translate(151.28859, 239.838114)"><g><path d="M 1.296875 -9.921875 L 5.25 -9.921875 C 6.5 -9.921875 7.46875 -9.625 8.15625 -9.03125 C 8.84375 -8.445312 9.1875 -7.613281 9.1875 -6.53125 C 9.1875 -5.40625 8.84375 -4.53125 8.15625 -3.90625 C 7.46875 -3.289062 6.5 -2.984375 5.25 -2.984375 L 2.96875 -2.984375 L 2.96875 0 L 1.296875 0 Z M 2.96875 -8.421875 L 2.96875 -4.5 L 5.1875 -4.5 C 6.78125 -4.5 7.578125 -5.160156 7.578125 -6.484375 C 7.578125 -7.773438 6.78125 -8.421875 5.1875 -8.421875 Z M 2.96875 -8.421875 "/></g></g></g><g fill="#ffffff" fill-opacity="1"><g transform="translate(163.27095, 239.838114)"><g><path d="M 2.96875 -1.515625 L 7.265625 -1.515625 L 7.265625 0 L 1.296875 0 L 1.296875 -9.921875 L 2.96875 -9.921875 Z M 2.96875 -1.515625 "/></g></g></g><g fill="#ffffff" fill-opacity="1"><g transform="translate(173.2849, 239.838114)"><g><path d="M 7.703125 -2.234375 L 2.703125 -2.234375 L 1.75 0 L 0.015625 0 L 4.390625 -9.921875 L 6.109375 -9.921875 L 10.4375 0 L 8.65625 0 Z M 7.078125 -3.734375 L 5.203125 -8.140625 L 3.328125 -3.734375 Z M 7.078125 -3.734375 "/></g></g></g><g fill="#ffffff" fill-opacity="1"><g transform="translate(186.187734, 239.838114)"><g><path d="M 8.078125 -8.421875 L 4.9375 -8.421875 L 4.9375 0 L 3.265625 0 L 3.265625 -8.421875 L 0.125 -8.421875 L 0.125 -9.921875 L 8.078125 -9.921875 Z M 8.078125 -8.421875 "/></g></g></g><g fill="#ffffff" fill-opacity="1"><g transform="translate(196.838943, 239.838114)"><g><path d="M 2 -8.515625 C 3.007812 -9.484375 4.253906 -9.96875 5.734375 -9.96875 C 7.222656 -9.96875 8.472656 -9.484375 9.484375 -8.515625 C 10.492188 -7.554688 11 -6.367188 11 -4.953125 C 11 -3.535156 10.492188 -2.34375 9.484375 -1.375 C 8.472656 -0.40625 7.222656 0.078125 5.734375 0.078125 C 4.253906 0.078125 3.007812 -0.40625 2 -1.375 C 0.988281 -2.34375 0.484375 -3.535156 0.484375 -4.953125 C 0.484375 -6.367188 0.988281 -7.554688 2 -8.515625 Z M 5.75 -8.453125 C 4.769531 -8.453125 3.929688 -8.113281 3.234375 -7.4375 C 2.535156 -6.769531 2.1875 -5.941406 2.1875 -4.953125 C 2.1875 -3.972656 2.535156 -3.140625 3.234375 -2.453125 C 3.941406 -1.773438 4.78125 -1.4375 5.75 -1.4375 C 6.726562 -1.4375 7.5625 -1.773438 8.25 -2.453125 C 8.9375 -3.140625 9.28125 -3.972656 9.28125 -4.953125 C 9.28125 -5.941406 8.9375 -6.769531 8.25 -7.4375 C 7.5625 -8.113281 6.726562 -8.453125 5.75 -8.453125 Z M 5.75 -8.453125 "/></g></g></g><g fill="#ffffff" fill-opacity="1"><g transform="translate(210.761385, 239.838114)"><g><path d="M 2 -8.515625 C 3.007812 -9.484375 4.253906 -9.96875 5.734375 -9.96875 C 7.222656 -9.96875 8.472656 -9.484375 9.484375 -8.515625 C 10.492188 -7.554688 11 -6.367188 11 -4.953125 C 11 -3.535156 10.492188 -2.34375 9.484375 -1.375 C 8.472656 -0.40625 7.222656 0.078125 5.734375 0.078125 C 4.253906 0.078125 3.007812 -0.40625 2 -1.375 C 0.988281 -2.34375 0.484375 -3.535156 0.484375 -4.953125 C 0.484375 -6.367188 0.988281 -7.554688 2 -8.515625 Z M 5.75 -8.453125 C 4.769531 -8.453125 3.929688 -8.113281 3.234375 -7.4375 C 2.535156 -6.769531 2.1875 -5.941406 2.1875 -4.953125 C 2.1875 -3.972656 2.535156 -3.140625 3.234375 -2.453125 C 3.941406 -1.773438 4.78125 -1.4375 5.75 -1.4375 C 6.726562 -1.4375 7.5625 -1.773438 8.25 -2.453125 C 8.9375 -3.140625 9.28125 -3.972656 9.28125 -4.953125 C 9.28125 -5.941406 8.9375 -6.769531 8.25 -7.4375 C 7.5625 -8.113281 6.726562 -8.453125 5.75 -8.453125 Z M 5.75 -8.453125 "/></g></g></g><g fill="#ffffff" fill-opacity="1"><g transform="translate(224.683826, 239.838114)"><g><path d="M 9.90625 0 L 8.265625 0 L 2.96875 -7.109375 L 2.96875 0 L 1.296875 0 L 1.296875 -9.921875 L 2.953125 -9.921875 L 8.265625 -2.796875 L 8.265625 -9.921875 L 9.90625 -9.921875 Z M 9.90625 0 "/></g></g></g><g fill="#ffffff" fill-opacity="1"><g transform="translate(238.351369, 239.838114)"><g/></g></g><g fill="#ffffff" fill-opacity="1"><g transform="translate(244.456815, 239.838114)"><g><path d="M 4.5625 -9.984375 C 5.84375 -9.984375 7 -9.644531 8.03125 -8.96875 L 7.34375 -7.5 C 6.332031 -8.113281 5.363281 -8.421875 4.4375 -8.421875 C 3.9375 -8.421875 3.539062 -8.328125 3.25 -8.140625 C 2.957031 -7.960938 2.8125 -7.707031 2.8125 -7.375 C 2.8125 -7.050781 2.941406 -6.769531 3.203125 -6.53125 C 3.472656 -6.300781 3.804688 -6.128906 4.203125 -6.015625 C 4.597656 -5.910156 5.023438 -5.773438 5.484375 -5.609375 C 5.953125 -5.453125 6.382812 -5.28125 6.78125 -5.09375 C 7.1875 -4.90625 7.515625 -4.613281 7.765625 -4.21875 C 8.023438 -3.832031 8.15625 -3.363281 8.15625 -2.8125 C 8.15625 -1.9375 7.804688 -1.238281 7.109375 -0.71875 C 6.421875 -0.195312 5.523438 0.0625 4.421875 0.0625 C 3.660156 0.0625 2.925781 -0.078125 2.21875 -0.359375 C 1.507812 -0.648438 0.894531 -1.035156 0.375 -1.515625 L 1.09375 -2.96875 C 1.59375 -2.5 2.140625 -2.140625 2.734375 -1.890625 C 3.335938 -1.640625 3.910156 -1.515625 4.453125 -1.515625 C 5.035156 -1.515625 5.488281 -1.617188 5.8125 -1.828125 C 6.144531 -2.046875 6.3125 -2.34375 6.3125 -2.71875 C 6.3125 -3.0625 6.175781 -3.347656 5.90625 -3.578125 C 5.644531 -3.804688 5.316406 -3.972656 4.921875 -4.078125 C 4.523438 -4.191406 4.09375 -4.328125 3.625 -4.484375 C 3.164062 -4.640625 2.738281 -4.804688 2.34375 -4.984375 C 1.945312 -5.160156 1.613281 -5.441406 1.34375 -5.828125 C 1.082031 -6.210938 0.953125 -6.679688 0.953125 -7.234375 C 0.953125 -8.066406 1.28125 -8.734375 1.9375 -9.234375 C 2.601562 -9.734375 3.476562 -9.984375 4.5625 -9.984375 Z M 4.5625 -9.984375 "/></g></g></g><g fill="#ffffff" fill-opacity="1"><g transform="translate(255.716953, 239.838114)"><g><path d="M 2 -8.515625 C 3.007812 -9.484375 4.253906 -9.96875 5.734375 -9.96875 C 7.222656 -9.96875 8.472656 -9.484375 9.484375 -8.515625 C 10.492188 -7.554688 11 -6.367188 11 -4.953125 C 11 -3.535156 10.492188 -2.34375 9.484375 -1.375 C 8.472656 -0.40625 7.222656 0.078125 5.734375 0.078125 C 4.253906 0.078125 3.007812 -0.40625 2 -1.375 C 0.988281 -2.34375 0.484375 -3.535156 0.484375 -4.953125 C 0.484375 -6.367188 0.988281 -7.554688 2 -8.515625 Z M 5.75 -8.453125 C 4.769531 -8.453125 3.929688 -8.113281 3.234375 -7.4375 C 2.535156 -6.769531 2.1875 -5.941406 2.1875 -4.953125 C 2.1875 -3.972656 2.535156 -3.140625 3.234375 -2.453125 C 3.941406 -1.773438 4.78125 -1.4375 5.75 -1.4375 C 6.726562 -1.4375 7.5625 -1.773438 8.25 -2.453125 C 8.9375 -3.140625 9.28125 -3.972656 9.28125 -4.953125 C 9.28125 -5.941406 8.9375 -6.769531 8.25 -7.4375 C 7.5625 -8.113281 6.726562 -8.453125 5.75 -8.453125 Z M 5.75 -8.453125 "/></g></g></g><g fill="#ffffff" fill-opacity="1"><g transform="translate(269.639395, 239.838114)"><g><path d="M 2.96875 -1.515625 L 7.265625 -1.515625 L 7.265625 0 L 1.296875 0 L 1.296875 -9.921875 L 2.96875 -9.921875 Z M 2.96875 -1.515625 "/></g></g></g><g fill="#ffffff" fill-opacity="1"><g transform="translate(279.653332, 239.838114)"><g><path d="M 9.734375 -9.921875 L 9.734375 -4.109375 C 9.734375 -2.816406 9.347656 -1.796875 8.578125 -1.046875 C 7.816406 -0.296875 6.765625 0.078125 5.421875 0.078125 C 4.085938 0.078125 3.035156 -0.296875 2.265625 -1.046875 C 1.492188 -1.796875 1.109375 -2.816406 1.109375 -4.109375 L 1.109375 -9.921875 L 2.78125 -9.921875 L 2.78125 -4.109375 C 2.78125 -3.273438 3.015625 -2.617188 3.484375 -2.140625 C 3.960938 -1.671875 4.613281 -1.4375 5.4375 -1.4375 C 6.25 -1.4375 6.890625 -1.671875 7.359375 -2.140625 C 7.828125 -2.609375 8.0625 -3.265625 8.0625 -4.109375 L 8.0625 -9.921875 Z M 9.734375 -9.921875 "/></g></g></g><g fill="#ffffff" fill-opacity="1"><g transform="translate(292.924344, 239.838114)"><g><path d="M 8.078125 -8.421875 L 4.9375 -8.421875 L 4.9375 0 L 3.265625 0 L 3.265625 -8.421875 L 0.125 -8.421875 L 0.125 -9.921875 L 8.078125 -9.921875 Z M 8.078125 -8.421875 "/></g></g></g><g fill="#ffffff" fill-opacity="1"><g transform="translate(303.575553, 239.838114)"><g><path d="M 2.96875 0 L 1.296875 0 L 1.296875 -9.921875 L 2.96875 -9.921875 Z M 2.96875 0 "/></g></g></g><g fill="#ffffff" fill-opacity="1"><g transform="translate(310.304099, 239.838114)"><g><path d="M 2 -8.515625 C 3.007812 -9.484375 4.253906 -9.96875 5.734375 -9.96875 C 7.222656 -9.96875 8.472656 -9.484375 9.484375 -8.515625 C 10.492188 -7.554688 11 -6.367188 11 -4.953125 C 11 -3.535156 10.492188 -2.34375 9.484375 -1.375 C 8.472656 -0.40625 7.222656 0.078125 5.734375 0.078125 C 4.253906 0.078125 3.007812 -0.40625 2 -1.375 C 0.988281 -2.34375 0.484375 -3.535156 0.484375 -4.953125 C 0.484375 -6.367188 0.988281 -7.554688 2 -8.515625 Z M 5.75 -8.453125 C 4.769531 -8.453125 3.929688 -8.113281 3.234375 -7.4375 C 2.535156 -6.769531 2.1875 -5.941406 2.1875 -4.953125 C 2.1875 -3.972656 2.535156 -3.140625 3.234375 -2.453125 C 3.941406 -1.773438 4.78125 -1.4375 5.75 -1.4375 C 6.726562 -1.4375 7.5625 -1.773438 8.25 -2.453125 C 8.9375 -3.140625 9.28125 -3.972656 9.28125 -4.953125 C 9.28125 -5.941406 8.9375 -6.769531 8.25 -7.4375 C 7.5625 -8.113281 6.726562 -8.453125 5.75 -8.453125 Z M 5.75 -8.453125 "/></g></g></g><g fill="#ffffff" fill-opacity="1"><g transform="translate(324.226541, 239.838114)"><g><path d="M 9.90625 0 L 8.265625 0 L 2.96875 -7.109375 L 2.96875 0 L 1.296875 0 L 1.296875 -9.921875 L 2.953125 -9.921875 L 8.265625 -2.796875 L 8.265625 -9.921875 L 9.90625 -9.921875 Z M 9.90625 0 "/></g></g></g><g fill="#ffffff" fill-opacity="1"><g transform="translate(337.896519, 239.838114)"><g/></g></g></svg>